<?xml version="1.0" encoding="UTF-8"?>
<!DOCTYPE svg PUBLIC "-//W3C//DTD SVG 1.1//EN" "http://www.w3.org/Graphics/SVG/1.1/DTD/svg11.dtd">
<!-- Creator: CorelDRAW X7 -->
<svg xmlns="http://www.w3.org/2000/svg" xml:space="preserve" width="123.949mm" height="104.519mm" version="1.1" style="shape-rendering:geometricPrecision; text-rendering:geometricPrecision; image-rendering:optimizeQuality; fill-rule:evenodd; clip-rule:evenodd"
viewBox="0 0 162166 136746"
 xmlns:xlink="http://www.w3.org/1999/xlink">
 <defs>
  <style type="text/css">
   <![CDATA[
    .fil5 {fill:none}
    .fil9 {fill:none;fill-rule:nonzero}
    .fil2 {fill:#FEFEFE}
    .fil13 {fill:#FEFEFE;fill-rule:nonzero}
    .fil10 {fill:#BEBFC1;fill-rule:nonzero}
    .fil6 {fill:#BDBFC1;fill-rule:nonzero}
    .fil8 {fill:url(#id4)}
    .fil12 {fill:url(#id5)}
    .fil4 {fill:url(#id6)}
    .fil1 {fill:url(#id7)}
    .fil14 {fill:url(#id8)}
    .fil7 {fill:url(#id9)}
    .fil11 {fill:url(#id10)}
    .fil3 {fill:url(#id11)}
    .fil0 {fill:url(#id12)}
    .fil15 {fill:url(#id13);fill-rule:nonzero}
   ]]>
  </style>
   <clipPath id="id0">
    <path d="M80105 19844c26237,0 47571,19871 48141,44587 -5282,-19755 -21454,-20801 -46003,-20801 -24549,0 -48833,19267 -48833,32029 0,12762 6,677 14,1014 -961,-3592 -1473,-7354 -1473,-11228 0,-25185 21560,-45601 48154,-45601z"/>
   </clipPath>
   <clipPath id="id1" style="clip-rule:nonzero">
    <path d="M81813 2189c8727,0 17082,1681 24757,4737 7797,3104 14883,7625 20935,13240 2561,-515 5033,-870 7400,-1029 2558,-171 5001,-114 7312,215 5608,799 10072,2619 13342,5148 3343,2585 5438,5903 6239,9635 795,3699 307,7787 -1509,11944 -2111,4834 -6028,9772 -11819,14298 191,1402 340,2815 444,4239 117,1616 178,3234 178,4851 0,2825 -178,5612 -520,8351 -316,2524 -772,5005 -1361,7434 2656,1580 5105,3557 7313,5992 2392,2639 4489,5804 6246,9571l-1714 1188c-2287,-2325 -4704,-4253 -7234,-5829 -2228,-1388 -4540,-2503 -6923,-3375 -4765,12818 -13338,23815 -24333,31603 -10971,7770 -24347,12344 -38753,12344 -8727,0 -17081,-1682 -24755,-4737 -7798,-3105 -14884,-7627 -20937,-13241 -2561,515 -5033,870 -7400,1029 -2557,171 -5000,115 -7311,-214 -5608,-799 -10073,-2619 -13343,-5149 -3343,-2585 -5438,-5904 -6240,-9635 -794,-3700 -306,-7788 1509,-11945 2111,-4834 6029,-9772 11819,-14298 -191,-1402 -339,-2815 -442,-4237 -118,-1616 -178,-3234 -178,-4852 0,-2825 177,-5613 519,-8353 316,-2524 772,-5005 1360,-7433 -2656,-1581 -5104,-3557 -7312,-5992 -2392,-2638 -4489,-5802 -6246,-9569l1715 -1188c2286,2324 4704,4252 7233,5828 2228,1388 4540,2502 6923,3373 4764,-12817 13337,-23814 24332,-31600 10971,-7771 24348,-12344 38754,-12344zm23978 6700c-7419,-2954 -15511,-4580 -23978,-4580 -13963,0 -26919,4426 -37537,11946 -10919,7733 -19373,18741 -23914,31574l-347 981 -986 -331c-2890,-970 -5678,-2262 -8343,-3922 -991,-617 -1966,-1286 -2924,-2009 910,1355 1881,2594 2906,3725 2233,2463 4742,4427 7484,5967l710 399 -201 785c-660,2592 -1165,5245 -1503,7947 -332,2651 -503,5354 -503,8096 0,1596 57,3164 169,4703 115,1584 287,3150 513,4697l89 612 -495 378c-5765,4402 -9625,9189 -11657,13842 -1633,3741 -2079,7388 -1376,10661 696,3241 2530,6134 5461,8401 2988,2311 7117,3981 12349,4727 2159,307 4457,359 6873,197 2440,-164 4995,-544 7648,-1098l539 -113 401 378c5953,5613 12954,10123 20667,13194 7419,2954 15510,4579 23977,4579 13963,0 26918,-4426 37535,-11946 10920,-7733 19374,-18742 23916,-31575l347 -981 986 331c2890,970 5677,2262 8342,3922 992,618 1967,1288 2925,2011 -910,-1356 -1880,-2595 -2906,-3726 -2233,-2464 -4742,-4429 -7485,-5968l-709 -398 200 -786c661,-2593 1166,-5246 1504,-7948 332,-2650 503,-5351 503,-8094 0,-1594 -57,-3163 -169,-4702 -116,-1585 -288,-3153 -513,-4699l-89 -612 495 -378c5765,-4402 9624,-9190 11656,-13842 1634,-3741 2080,-7388 1377,-10660 -696,-3241 -2530,-6134 -5461,-8401 -2988,-2311 -7116,-3980 -12348,-4726 -2160,-308 -4457,-359 -6873,-198 -2440,163 -4996,543 -7648,1097l-540 113 -400 -378c-5954,-5613 -12953,-10122 -20667,-13192zm-26125 55819c4873,-2267 9565,-3858 13202,-4597 4031,-818 6953,-522 7797,1085l12 25 24 48 12 21c695,1496 -482,3553 -3007,5760 -2209,1931 -5523,4117 -9485,6190 -1095,573 -2213,1126 -3340,1649 -4873,2266 -9565,3857 -13202,4595 -4033,819 -6956,524 -7798,-1079l-12 -25 -25 -49 -12 -25c-693,-1491 476,-3540 2986,-5739 2195,-1922 5489,-4099 9430,-6168 1117,-587 2261,-1153 3418,-1691zm13616 -2526c-3471,704 -7992,2243 -12730,4447 -1178,548 -2290,1097 -3327,1642 -3787,1987 -6935,4065 -9015,5886 -1764,1545 -2703,2733 -2457,3263l0 0 1 1c355,669 2438,617 5511,-7 3471,-705 7992,-2243 12730,-4446 1151,-535 2237,-1070 3249,-1600 3809,-1993 6977,-4079 9071,-5909 1778,-1554 2725,-2749 2477,-3283l2 -1 -2 -4c-355,-666 -2438,-613 -5510,11zm2374 13911c14675,-4459 23996,-11003 27550,-16804 1215,-1983 1725,-3842 1509,-5450 -207,-1541 -1107,-2894 -2719,-3940 -3779,-2452 -11215,-3239 -22555,-1063 -5789,1111 -11587,2408 -17380,3704 -19789,4425 -39525,8838 -55109,5256 -369,1728 -657,3484 -861,5264 -240,2094 -364,4232 -364,6407 0,742 12,1415 34,2023l16 382c5184,-2643 11231,-4992 18163,-6891 6973,-1910 14840,-3363 23623,-4201l406 2062c-14674,4459 -23995,11003 -27549,16804 -1215,1984 -1724,3843 -1509,5450 207,1541 1107,2895 2720,3940 3779,2453 11215,3240 22554,1064 5791,-1111 11592,-2409 17388,-3706 19786,-4426 39520,-8839 55101,-5258 369,-1727 657,-3483 861,-5263 241,-2094 364,-4231 364,-6406 0,-741 -12,-1414 -34,-2023l-16 -383c-5184,2644 -11231,4993 -18163,6892 -6973,1911 -14841,3364 -23624,4202l-406 -2062zm29355 -15703c-2980,4865 -9645,10183 -19757,14480 4975,-785 9599,-1782 13877,-2954 7420,-2033 13803,-4594 19178,-7483l1440 -775 117 1632c46,651 84,1344 111,2079 28,759 43,1461 43,2098 0,2238 -130,4455 -381,6646 -255,2221 -635,4405 -1134,6542l-245 1052 -1047 -269c-15251,-3914 -35191,546 -55185,5018 -5878,1316 -11763,2632 -17445,3723 -11923,2288 -19901,1356 -24104,-1370 -2159,-1402 -3372,-3268 -3663,-5431 -282,-2097 326,-4429 1799,-6833 2980,-4865 9646,-10183 19757,-14481 -4976,785 -9600,1783 -13877,2955 -7420,2032 -13803,4593 -19178,7482l-1440 774 -117 -1631c-46,-652 -84,-1344 -111,-2079 -28,-758 -43,-1460 -43,-2098 0,-2237 130,-4456 381,-6646 255,-2223 636,-4406 1134,-6544l245 -1051 1047 269c15253,3915 35196,-546 55192,-5018 5877,-1314 11758,-2630 17438,-3720 11924,-2288 19902,-1357 24104,1370 2160,1401 3373,3267 3663,5431 282,2097 -326,4428 -1799,6832zm-95209 -11882c18884,1591 40985,-7428 61674,-15874 7890,-3221 15577,-6358 22861,-8814 -4406,-3151 -9285,-5682 -14506,-7463 -5655,-1929 -11716,-2976 -18018,-2976 -11818,0 -22799,3686 -31854,9964 -8947,6205 -16017,14944 -20157,25163zm62469 -13911c-21433,8749 -44364,18109 -64080,15881l-1352 -153 478 -1271c4209,-11178 11767,-20739 21441,-27448 9401,-6519 20797,-10345 33055,-10345 6532,0 12822,1088 18697,3092 6090,2077 11733,5140 16738,8996l1589 1225 -1912 618c-7724,2494 -16068,5901 -24654,9405zm41554 55827c-18884,-1591 -40985,7429 -61674,15874 -7890,3221 -15577,6359 -22862,8815 4407,3151 9286,5683 14508,7464 5654,1929 11714,2977 18016,2977 11818,0 22800,-3686 31854,-9966 8948,-6205 16017,-14944 20158,-25164zm-62469 13911c21433,-8749 44363,-18109 64080,-15881l1352 153 -479 1271c-4208,11179 -11767,20741 -21441,27450 -9401,6519 -20797,10346 -33055,10346 -6531,0 -12820,-1089 -18695,-3093 -6090,-2077 -11734,-5141 -16739,-8997l-1590 -1225 1913 -618c7724,-2495 16069,-5901 24654,-9406z"/>
   </clipPath>
   <clipPath id="id2" style="clip-rule:nonzero">
    <path d="M105837 26895c756,454 1496,928 2223,1420 -5105,1921 -10399,4082 -15789,6282 -19188,7833 -39578,16154 -57786,16212 256,-717 532,-1426 824,-2126 17595,-306 37458,-8412 56167,-16049 4881,-1992 9683,-3952 14361,-5739zm19736 23506c502,1361 938,2751 1304,4168 1,1225 -282,2517 -843,3846 -437,-891 -906,-1729 -1411,-2517 148,-721 179,-1410 92,-2059 -207,-1541 -1107,-2894 -2719,-3940 -1580,-1024 -3798,-1758 -6672,-2107 -2013,-955 -4220,-1694 -6613,-2263 6701,-340 11494,689 14436,2598 1018,660 1826,1424 2426,2274zm-79504 6353c-947,743 -1851,1503 -2711,2273 -3766,164 -7407,88 -10885,-303 109,-699 236,-1392 378,-2081 4170,457 8601,449 13218,111zm-9939 10682c-575,941 -1063,1875 -1463,2797 -795,307 -1574,620 -2338,940 -97,-725 -175,-1456 -234,-2191 1301,-534 2646,-1049 4035,-1546z"/>
   </clipPath>
   <clipPath id="id3" style="clip-rule:nonzero">
    <path d="M80354 1060c17530,0 33503,6874 45369,18062 5406,-1129 10415,-1548 14885,-911 22910,3265 25732,23891 5270,39517 454,3119 694,6308 694,9550 0,5623 -711,11084 -2040,16303 5671,3183 10389,8140 13818,15492 -4697,-4776 -9930,-7920 -15548,-9806 -9101,25718 -33680,44230 -62448,44230 -17530,0 -33503,-6876 -45369,-18064 -5406,1129 -10415,1550 -14886,913 -22910,-3265 -25732,-23893 -5269,-39519 -454,-3120 -695,-6306 -695,-9549 0,-5622 711,-11085 2040,-16303 -5670,-3184 -10388,-8139 -13817,-15491 4697,4776 9930,7918 15547,9804 9100,-25719 33680,-44228 62449,-44228zm-1704 62420c9613,-4472 18425,-6260 19620,-3984 1191,2276 -5678,7779 -15292,12244 -9612,4469 -18426,6257 -19620,3983 -1194,-2273 5677,-7776 15292,-12243zm15853 11434c37459,-11382 40917,-36530 3280,-29307 -25505,4897 -53097,13853 -73090,8721 -971,4164 -1486,8499 -1486,12950 0,1380 53,2747 150,4102 10446,-5615 24656,-10002 42846,-11737 -37457,11382 -40915,36530 -3278,29308 25504,-4897 53096,-13856 73090,-8725 970,-4163 1485,-8497 1485,-12948 0,-1379 -53,-2747 -149,-4103 -10447,5617 -24657,10004 -42848,11739zm-67655 -27677c27287,3084 61178,-16482 88294,-25240 -9647,-7434 -21715,-11865 -34788,-11865 -24429,0 -45359,15466 -53506,37105zm107012 40080c-27288,-3084 -61179,16483 -88294,25241 9647,7434 21715,11867 34788,11867 24429,0 45359,-15468 53506,-37108z"/>
   </clipPath>
  <linearGradient id="id4" gradientUnits="userSpaceOnUse" x1="83597.2" y1="117638" x2="79518.6" y2="62572.3">
   <stop offset="0" style="stop-opacity:1; stop-color:#4C4644"/>
   <stop offset="0.2" style="stop-opacity:1; stop-color:#6B564C"/>
   <stop offset="1" style="stop-opacity:1; stop-color:#8B6654"/>
  </linearGradient>
  <linearGradient id="id5" gradientUnits="userSpaceOnUse" x1="83597.2" y1="117638" x2="79518.6" y2="62572.3">
   <stop offset="0" style="stop-opacity:1; stop-color:#635750"/>
   <stop offset="0.2" style="stop-opacity:1; stop-color:#7C6553"/>
   <stop offset="1" style="stop-opacity:1; stop-color:#957457"/>
  </linearGradient>
  <linearGradient id="id6" gradientUnits="userSpaceOnUse" x1="83597.2" y1="117638" x2="79518.6" y2="62572.3">
   <stop offset="0" style="stop-opacity:1; stop-color:#9A8671"/>
   <stop offset="0.2" style="stop-opacity:1; stop-color:#B48D61"/>
   <stop offset="1" style="stop-opacity:1; stop-color:#CE9551"/>
  </linearGradient>
  <linearGradient id="id7" gradientUnits="userSpaceOnUse" x1="83597.2" y1="117638" x2="79518.6" y2="62572.3">
   <stop offset="0" style="stop-opacity:1; stop-color:#847059"/>
   <stop offset="0.2" style="stop-opacity:1; stop-color:#A47948"/>
   <stop offset="1" style="stop-opacity:1; stop-color:#C58236"/>
  </linearGradient>
  <linearGradient id="id8" gradientUnits="userSpaceOnUse" x1="65339.4" y1="53776.7" x2="92581.2" y2="154753">
   <stop offset="0" style="stop-opacity:1; stop-color:#376C64"/>
   <stop offset="1" style="stop-opacity:1; stop-color:#FEFEFE"/>
  </linearGradient>
  <radialGradient id="id9" gradientUnits="userSpaceOnUse" gradientTransform="matrix(1.40172 -0 -0 1.40172 -31740 -27023)" cx="79011.2" cy="67268.7" r="40261.6" fx="79011.2" fy="67268.7">
   <stop offset="0" style="stop-opacity:1; stop-color:#B9A05A"/>
   <stop offset="1" style="stop-opacity:1; stop-color:#5F514D"/>
  </radialGradient>
  <radialGradient id="id10" gradientUnits="userSpaceOnUse" gradientTransform="matrix(1.40172 -0 -0 1.40172 -31740 -27023)" cx="79011.2" cy="67268.7" r="40261.6" fx="79011.2" fy="67268.7">
   <stop offset="0" style="stop-opacity:1; stop-color:#BBA45A"/>
   <stop offset="1" style="stop-opacity:1; stop-color:#715952"/>
  </radialGradient>
  <radialGradient id="id11" gradientUnits="userSpaceOnUse" gradientTransform="matrix(1.40172 -0 -0 1.40172 -31740 -27023)" cx="79011.2" cy="67268.7" r="40261.6" fx="79011.2" fy="67268.7">
   <stop offset="0" style="stop-opacity:1; stop-color:#F9D659"/>
   <stop offset="1" style="stop-opacity:1; stop-color:#AA5B46"/>
  </radialGradient>
  <radialGradient id="id12" gradientUnits="userSpaceOnUse" gradientTransform="matrix(1.40172 -0 -0 1.40172 -31740 -27023)" cx="79011.2" cy="67268.7" r="40261.6" fx="79011.2" fy="67268.7">
   <stop offset="0" style="stop-opacity:1; stop-color:#F7CF2B"/>
   <stop offset="1" style="stop-opacity:1; stop-color:#9A3F34"/>
  </radialGradient>
  <linearGradient id="id13" gradientUnits="userSpaceOnUse" x1="76260.1" y1="-4357.66" x2="84446.8" y2="138915">
   <stop offset="0" style="stop-opacity:1; stop-color:#B5BED4"/>
   <stop offset="0.501961" style="stop-opacity:1; stop-color:#FEFEFE"/>
   <stop offset="1" style="stop-opacity:1; stop-color:#ACB8D2"/>
  </linearGradient>
 </defs>
 <g id="Layer_x0020_1">
  <metadata id="CorelCorpID_0Corel-Layer"/>
  <ellipse class="fil0" cx="79011" cy="67269" rx="61652" ry="60558"/>
  <path class="fil1" d="M81565 118341c26237,0 47571,-16865 48140,-37844 -5912,11723 -44363,5360 -67716,14925 -23354,9564 -27119,-13623 -27119,-24455 0,-10832 6,-574 13,-860 -960,3048 -1472,6241 -1472,9530 0,21376 21559,38704 48154,38704z"/>
  <g style="clip-path:url(#id0)">
   <polygon class="fil2" points="-1280,-13387 161478,-13387 161478,114757 -1280,114757 "/>
   <g id="Layer_x0020_1_0">
    <metadata id="CorelCorpID_1Corel-Layer"/>
    <path id="1" class="fil3" d="M79011 127826c33957,0 61652,-27204 61652,-60558 0,-33353 -27695,-60557 -61652,-60557 -33957,0 -61652,27204 -61652,60557 0,33354 27695,60558 61652,60558z"/>
    <path class="fil4" d="M81565 118341c26237,0 47571,-16865 48140,-37844 -5912,11723 -44363,5360 -67716,14925 -23354,9564 -27119,-13623 -27119,-24455 0,-10832 6,-574 13,-860 -960,3048 -1472,6241 -1472,9530 0,21376 21559,38704 48154,38704z"/>
   </g>
  </g>
  <path class="fil5" d="M80105 19844c26237,0 47571,19871 48141,44587 -5282,-19755 -21454,-20801 -46003,-20801 -24549,0 -48833,19267 -48833,32029 0,12762 6,677 14,1014 -961,-3592 -1473,-7354 -1473,-11228 0,-25185 21560,-45601 48154,-45601z"/>
  <g style="clip-path:url(#id1)">
   <polygon class="fil6" points="-31772,-31043 195398,-31043 195398,169977 -31772,169977 "/>
   <g id="Layer_x0020_1_1">
    <metadata id="CorelCorpID_2Corel-Layer"/>
    <path id="1" class="fil7" d="M79011 127826c33957,0 61652,-27204 61652,-60558 0,-33353 -27695,-60557 -61652,-60557 -33957,0 -61652,27204 -61652,60557 0,33354 27695,60558 61652,60558z"/>
    <path class="fil8" d="M81565 118341c26237,0 47571,-16865 48140,-37844 -5912,11723 -44363,5360 -67716,14925 -23354,9564 -27119,-13623 -27119,-24455 0,-10832 6,-574 13,-860 -960,3048 -1472,6241 -1472,9530 0,21376 21559,38704 48154,38704z"/>
    <path class="fil5" d="M80105 19844c26237,0 47571,19871 48141,44587 -5282,-19755 -21454,-20801 -46003,-20801 -24549,0 -48833,19267 -48833,32029 0,12762 6,677 14,1014 -961,-3592 -1473,-7354 -1473,-11228 0,-25185 21560,-45601 48154,-45601z"/>
   </g>
  </g>
  <path class="fil9" d="M81813 2189c8727,0 17082,1681 24757,4737 7797,3104 14883,7625 20935,13240 2561,-515 5033,-870 7400,-1029 2558,-171 5001,-114 7312,215 5608,799 10072,2619 13342,5148 3343,2585 5438,5903 6239,9635 795,3699 307,7787 -1509,11944 -2111,4834 -6028,9772 -11819,14298 191,1402 340,2815 444,4239 117,1616 178,3234 178,4851 0,2825 -178,5612 -520,8351 -316,2524 -772,5005 -1361,7434 2656,1580 5105,3557 7313,5992 2392,2639 4489,5804 6246,9571l-1714 1188c-2287,-2325 -4704,-4253 -7234,-5829 -2228,-1388 -4540,-2503 -6923,-3375 -4765,12818 -13338,23815 -24333,31603 -10971,7770 -24347,12344 -38753,12344 -8727,0 -17081,-1682 -24755,-4737 -7798,-3105 -14884,-7627 -20937,-13241 -2561,515 -5033,870 -7400,1029 -2557,171 -5000,115 -7311,-214 -5608,-799 -10073,-2619 -13343,-5149 -3343,-2585 -5438,-5904 -6240,-9635 -794,-3700 -306,-7788 1509,-11945 2111,-4834 6029,-9772 11819,-14298 -191,-1402 -339,-2815 -442,-4237 -118,-1616 -178,-3234 -178,-4852 0,-2825 177,-5613 519,-8353 316,-2524 772,-5005 1360,-7433 -2656,-1581 -5104,-3557 -7312,-5992 -2392,-2638 -4489,-5802 -6246,-9569l1715 -1188c2286,2324 4704,4252 7233,5828 2228,1388 4540,2502 6923,3373 4764,-12817 13337,-23814 24332,-31600 10971,-7771 24348,-12344 38754,-12344zm23978 6700c-7419,-2954 -15511,-4580 -23978,-4580 -13963,0 -26919,4426 -37537,11946 -10919,7733 -19373,18741 -23914,31574l-347 981 -986 -331c-2890,-970 -5678,-2262 -8343,-3922 -991,-617 -1966,-1286 -2924,-2009 910,1355 1881,2594 2906,3725 2233,2463 4742,4427 7484,5967l710 399 -201 785c-660,2592 -1165,5245 -1503,7947 -332,2651 -503,5354 -503,8096 0,1596 57,3164 169,4703 115,1584 287,3150 513,4697l89 612 -495 378c-5765,4402 -9625,9189 -11657,13842 -1633,3741 -2079,7388 -1376,10661 696,3241 2530,6134 5461,8401 2988,2311 7117,3981 12349,4727 2159,307 4457,359 6873,197 2440,-164 4995,-544 7648,-1098l539 -113 401 378c5953,5613 12954,10123 20667,13194 7419,2954 15510,4579 23977,4579 13963,0 26918,-4426 37535,-11946 10920,-7733 19374,-18742 23916,-31575l347 -981 986 331c2890,970 5677,2262 8342,3922 992,618 1967,1288 2925,2011 -910,-1356 -1880,-2595 -2906,-3726 -2233,-2464 -4742,-4429 -7485,-5968l-709 -398 200 -786c661,-2593 1166,-5246 1504,-7948 332,-2650 503,-5351 503,-8094 0,-1594 -57,-3163 -169,-4702 -116,-1585 -288,-3153 -513,-4699l-89 -612 495 -378c5765,-4402 9624,-9190 11656,-13842 1634,-3741 2080,-7388 1377,-10660 -696,-3241 -2530,-6134 -5461,-8401 -2988,-2311 -7116,-3980 -12348,-4726 -2160,-308 -4457,-359 -6873,-198 -2440,163 -4996,543 -7648,1097l-540 113 -400 -378c-5954,-5613 -12953,-10122 -20667,-13192zm-26125 55819c4873,-2267 9565,-3858 13202,-4597 4031,-818 6953,-522 7797,1085l12 25 24 48 12 21c695,1496 -482,3553 -3007,5760 -2209,1931 -5523,4117 -9485,6190 -1095,573 -2213,1126 -3340,1649 -4873,2266 -9565,3857 -13202,4595 -4033,819 -6956,524 -7798,-1079l-12 -25 -25 -49 -12 -25c-693,-1491 476,-3540 2986,-5739 2195,-1922 5489,-4099 9430,-6168 1117,-587 2261,-1153 3418,-1691zm13616 -2526c-3471,704 -7992,2243 -12730,4447 -1178,548 -2290,1097 -3327,1642 -3787,1987 -6935,4065 -9015,5886 -1764,1545 -2703,2733 -2457,3263l0 0 1 1c355,669 2438,617 5511,-7 3471,-705 7992,-2243 12730,-4446 1151,-535 2237,-1070 3249,-1600 3809,-1993 6977,-4079 9071,-5909 1778,-1554 2725,-2749 2477,-3283l2 -1 -2 -4c-355,-666 -2438,-613 -5510,11zm2374 13911c14675,-4459 23996,-11003 27550,-16804 1215,-1983 1725,-3842 1509,-5450 -207,-1541 -1107,-2894 -2719,-3940 -3779,-2452 -11215,-3239 -22555,-1063 -5789,1111 -11587,2408 -17380,3704 -19789,4425 -39525,8838 -55109,5256 -369,1728 -657,3484 -861,5264 -240,2094 -364,4232 -364,6407 0,742 12,1415 34,2023l16 382c5184,-2643 11231,-4992 18163,-6891 6973,-1910 14840,-3363 23623,-4201l406 2062c-14674,4459 -23995,11003 -27549,16804 -1215,1984 -1724,3843 -1509,5450 207,1541 1107,2895 2720,3940 3779,2453 11215,3240 22554,1064 5791,-1111 11592,-2409 17388,-3706 19786,-4426 39520,-8839 55101,-5258 369,-1727 657,-3483 861,-5263 241,-2094 364,-4231 364,-6406 0,-741 -12,-1414 -34,-2023l-16 -383c-5184,2644 -11231,4993 -18163,6892 -6973,1911 -14841,3364 -23624,4202l-406 -2062zm29355 -15703c-2980,4865 -9645,10183 -19757,14480 4975,-785 9599,-1782 13877,-2954 7420,-2033 13803,-4594 19178,-7483l1440 -775 117 1632c46,651 84,1344 111,2079 28,759 43,1461 43,2098 0,2238 -130,4455 -381,6646 -255,2221 -635,4405 -1134,6542l-245 1052 -1047 -269c-15251,-3914 -35191,546 -55185,5018 -5878,1316 -11763,2632 -17445,3723 -11923,2288 -19901,1356 -24104,-1370 -2159,-1402 -3372,-3268 -3663,-5431 -282,-2097 326,-4429 1799,-6833 2980,-4865 9646,-10183 19757,-14481 -4976,785 -9600,1783 -13877,2955 -7420,2032 -13803,4593 -19178,7482l-1440 774 -117 -1631c-46,-652 -84,-1344 -111,-2079 -28,-758 -43,-1460 -43,-2098 0,-2237 130,-4456 381,-6646 255,-2223 636,-4406 1134,-6544l245 -1051 1047 269c15253,3915 35196,-546 55192,-5018 5877,-1314 11758,-2630 17438,-3720 11924,-2288 19902,-1357 24104,1370 2160,1401 3373,3267 3663,5431 282,2097 -326,4428 -1799,6832zm-95209 -11882c18884,1591 40985,-7428 61674,-15874 7890,-3221 15577,-6358 22861,-8814 -4406,-3151 -9285,-5682 -14506,-7463 -5655,-1929 -11716,-2976 -18018,-2976 -11818,0 -22799,3686 -31854,9964 -8947,6205 -16017,14944 -20157,25163zm62469 -13911c-21433,8749 -44364,18109 -64080,15881l-1352 -153 478 -1271c4209,-11178 11767,-20739 21441,-27448 9401,-6519 20797,-10345 33055,-10345 6532,0 12822,1088 18697,3092 6090,2077 11733,5140 16738,8996l1589 1225 -1912 618c-7724,2494 -16068,5901 -24654,9405zm41554 55827c-18884,-1591 -40985,7429 -61674,15874 -7890,3221 -15577,6359 -22862,8815 4407,3151 9286,5683 14508,7464 5654,1929 11714,2977 18016,2977 11818,0 22800,-3686 31854,-9966 8948,-6205 16017,-14944 20158,-25164zm-62469 13911c21433,-8749 44363,-18109 64080,-15881l1352 153 -479 1271c-4208,11179 -11767,20741 -21441,27450 -9401,6519 -20797,10346 -33055,10346 -6531,0 -12820,-1089 -18695,-3093 -6090,-2077 -11734,-5141 -16739,-8997l-1590 -1225 1913 -618c7724,-2495 16069,-5901 24654,-9406z"/>
  <g style="clip-path:url(#id2)">
   <polygon id="1" class="fil10" points="-1137,-6337 160109,-6337 160109,104404 -1137,104404 "/>
   <g id="Layer_x0020_1_2">
    <metadata id="CorelCorpID_3Corel-Layer"/>
    <path id="2" class="fil11" d="M79011 127826c33957,0 61652,-27204 61652,-60558 0,-33353 -27695,-60557 -61652,-60557 -33957,0 -61652,27204 -61652,60557 0,33354 27695,60558 61652,60558z"/>
    <path class="fil12" d="M81565 118341c26237,0 47571,-16865 48140,-37844 -5912,11723 -44363,5360 -67716,14925 -23354,9564 -27119,-13623 -27119,-24455 0,-10832 6,-574 13,-860 -960,3048 -1472,6241 -1472,9530 0,21376 21559,38704 48154,38704z"/>
    <path class="fil5" d="M80105 19844c26237,0 47571,19871 48141,44587 -5282,-19755 -21454,-20801 -46003,-20801 -24549,0 -48833,19267 -48833,32029 0,12762 6,677 14,1014 -961,-3592 -1473,-7354 -1473,-11228 0,-25185 21560,-45601 48154,-45601z"/>
   </g>
  </g>
  <path class="fil9" d="M81813 2189c8727,0 17082,1681 24757,4737 7797,3104 14883,7625 20935,13240 2561,-515 5033,-870 7400,-1029 2558,-171 5001,-114 7312,215 5608,799 10072,2619 13342,5148 3343,2585 5438,5903 6239,9635 795,3699 307,7787 -1509,11944 -2111,4834 -6028,9772 -11819,14298 191,1402 340,2815 444,4239 117,1616 178,3234 178,4851 0,2825 -178,5612 -520,8351 -316,2524 -772,5005 -1361,7434 2656,1580 5105,3557 7313,5992 2392,2639 4489,5804 6246,9571l-1714 1188c-2287,-2325 -4704,-4253 -7234,-5829 -2228,-1388 -4540,-2503 -6923,-3375 -4765,12818 -13338,23815 -24333,31603 -10971,7770 -24347,12344 -38753,12344 -8727,0 -17081,-1682 -24755,-4737 -7798,-3105 -14884,-7627 -20937,-13241 -2561,515 -5033,870 -7400,1029 -2557,171 -5000,115 -7311,-214 -5608,-799 -10073,-2619 -13343,-5149 -3343,-2585 -5438,-5904 -6240,-9635 -794,-3700 -306,-7788 1509,-11945 2111,-4834 6029,-9772 11819,-14298 -191,-1402 -339,-2815 -442,-4237 -118,-1616 -178,-3234 -178,-4852 0,-2825 177,-5613 519,-8353 316,-2524 772,-5005 1360,-7433 -2656,-1581 -5104,-3557 -7312,-5992 -2392,-2638 -4489,-5802 -6246,-9569l1715 -1188c2286,2324 4704,4252 7233,5828 2228,1388 4540,2502 6923,3373 4764,-12817 13337,-23814 24332,-31600 10971,-7771 24348,-12344 38754,-12344zm23978 6700c-7419,-2954 -15511,-4580 -23978,-4580 -13963,0 -26919,4426 -37537,11946 -10919,7733 -19373,18741 -23914,31574l-347 981 -986 -331c-2890,-970 -5678,-2262 -8343,-3922 -991,-617 -1966,-1286 -2924,-2009 910,1355 1881,2594 2906,3725 2233,2463 4742,4427 7484,5967l710 399 -201 785c-660,2592 -1165,5245 -1503,7947 -332,2651 -503,5354 -503,8096 0,1596 57,3164 169,4703 115,1584 287,3150 513,4697l89 612 -495 378c-5765,4402 -9625,9189 -11657,13842 -1633,3741 -2079,7388 -1376,10661 696,3241 2530,6134 5461,8401 2988,2311 7117,3981 12349,4727 2159,307 4457,359 6873,197 2440,-164 4995,-544 7648,-1098l539 -113 401 378c5953,5613 12954,10123 20667,13194 7419,2954 15510,4579 23977,4579 13963,0 26918,-4426 37535,-11946 10920,-7733 19374,-18742 23916,-31575l347 -981 986 331c2890,970 5677,2262 8342,3922 992,618 1967,1288 2925,2011 -910,-1356 -1880,-2595 -2906,-3726 -2233,-2464 -4742,-4429 -7485,-5968l-709 -398 200 -786c661,-2593 1166,-5246 1504,-7948 332,-2650 503,-5351 503,-8094 0,-1594 -57,-3163 -169,-4702 -116,-1585 -288,-3153 -513,-4699l-89 -612 495 -378c5765,-4402 9624,-9190 11656,-13842 1634,-3741 2080,-7388 1377,-10660 -696,-3241 -2530,-6134 -5461,-8401 -2988,-2311 -7116,-3980 -12348,-4726 -2160,-308 -4457,-359 -6873,-198 -2440,163 -4996,543 -7648,1097l-540 113 -400 -378c-5954,-5613 -12953,-10122 -20667,-13192zm-26125 55819c4873,-2267 9565,-3858 13202,-4597 4031,-818 6953,-522 7797,1085l12 25 24 48 12 21c695,1496 -482,3553 -3007,5760 -2209,1931 -5523,4117 -9485,6190 -1095,573 -2213,1126 -3340,1649 -4873,2266 -9565,3857 -13202,4595 -4033,819 -6956,524 -7798,-1079l-12 -25 -25 -49 -12 -25c-693,-1491 476,-3540 2986,-5739 2195,-1922 5489,-4099 9430,-6168 1117,-587 2261,-1153 3418,-1691zm13616 -2526c-3471,704 -7992,2243 -12730,4447 -1178,548 -2290,1097 -3327,1642 -3787,1987 -6935,4065 -9015,5886 -1764,1545 -2703,2733 -2457,3263l0 0 1 1c355,669 2438,617 5511,-7 3471,-705 7992,-2243 12730,-4446 1151,-535 2237,-1070 3249,-1600 3809,-1993 6977,-4079 9071,-5909 1778,-1554 2725,-2749 2477,-3283l2 -1 -2 -4c-355,-666 -2438,-613 -5510,11zm2374 13911c14675,-4459 23996,-11003 27550,-16804 1215,-1983 1725,-3842 1509,-5450 -207,-1541 -1107,-2894 -2719,-3940 -3779,-2452 -11215,-3239 -22555,-1063 -5789,1111 -11587,2408 -17380,3704 -19789,4425 -39525,8838 -55109,5256 -369,1728 -657,3484 -861,5264 -240,2094 -364,4232 -364,6407 0,742 12,1415 34,2023l16 382c5184,-2643 11231,-4992 18163,-6891 6973,-1910 14840,-3363 23623,-4201l406 2062c-14674,4459 -23995,11003 -27549,16804 -1215,1984 -1724,3843 -1509,5450 207,1541 1107,2895 2720,3940 3779,2453 11215,3240 22554,1064 5791,-1111 11592,-2409 17388,-3706 19786,-4426 39520,-8839 55101,-5258 369,-1727 657,-3483 861,-5263 241,-2094 364,-4231 364,-6406 0,-741 -12,-1414 -34,-2023l-16 -383c-5184,2644 -11231,4993 -18163,6892 -6973,1911 -14841,3364 -23624,4202l-406 -2062zm29355 -15703c-2980,4865 -9645,10183 -19757,14480 4975,-785 9599,-1782 13877,-2954 7420,-2033 13803,-4594 19178,-7483l1440 -775 117 1632c46,651 84,1344 111,2079 28,759 43,1461 43,2098 0,2238 -130,4455 -381,6646 -255,2221 -635,4405 -1134,6542l-245 1052 -1047 -269c-15251,-3914 -35191,546 -55185,5018 -5878,1316 -11763,2632 -17445,3723 -11923,2288 -19901,1356 -24104,-1370 -2159,-1402 -3372,-3268 -3663,-5431 -282,-2097 326,-4429 1799,-6833 2980,-4865 9646,-10183 19757,-14481 -4976,785 -9600,1783 -13877,2955 -7420,2032 -13803,4593 -19178,7482l-1440 774 -117 -1631c-46,-652 -84,-1344 -111,-2079 -28,-758 -43,-1460 -43,-2098 0,-2237 130,-4456 381,-6646 255,-2223 636,-4406 1134,-6544l245 -1051 1047 269c15253,3915 35196,-546 55192,-5018 5877,-1314 11758,-2630 17438,-3720 11924,-2288 19902,-1357 24104,1370 2160,1401 3373,3267 3663,5431 282,2097 -326,4428 -1799,6832zm-95209 -11882c18884,1591 40985,-7428 61674,-15874 7890,-3221 15577,-6358 22861,-8814 -4406,-3151 -9285,-5682 -14506,-7463 -5655,-1929 -11716,-2976 -18018,-2976 -11818,0 -22799,3686 -31854,9964 -8947,6205 -16017,14944 -20157,25163zm62469 -13911c-21433,8749 -44364,18109 -64080,15881l-1352 -153 478 -1271c4209,-11178 11767,-20739 21441,-27448 9401,-6519 20797,-10345 33055,-10345 6532,0 12822,1088 18697,3092 6090,2077 11733,5140 16738,8996l1589 1225 -1912 618c-7724,2494 -16068,5901 -24654,9405zm41554 55827c-18884,-1591 -40985,7429 -61674,15874 -7890,3221 -15577,6359 -22862,8815 4407,3151 9286,5683 14508,7464 5654,1929 11714,2977 18016,2977 11818,0 22800,-3686 31854,-9966 8948,-6205 16017,-14944 20158,-25164zm-62469 13911c21433,-8749 44363,-18109 64080,-15881l1352 153 -479 1271c-4208,11179 -11767,20741 -21441,27450 -9401,6519 -20797,10346 -33055,10346 -6531,0 -12820,-1089 -18695,-3093 -6090,-2077 -11734,-5141 -16739,-8997l-1590 -1225 1913 -618c7724,-2495 16069,-5901 24654,-9406z"/>
  <path class="fil13" d="M80354 1060c17530,0 33503,6874 45369,18062 5406,-1129 10415,-1548 14885,-911 22910,3265 25732,23891 5270,39517 454,3119 694,6308 694,9550 0,5623 -711,11084 -2040,16303 5671,3183 10389,8140 13818,15492 -4697,-4776 -9930,-7920 -15548,-9806 -9101,25718 -33680,44230 -62448,44230 -17530,0 -33503,-6876 -45369,-18064 -5406,1129 -10415,1550 -14886,913 -22910,-3265 -25732,-23893 -5269,-39519 -454,-3120 -695,-6306 -695,-9549 0,-5622 711,-11085 2040,-16303 -5670,-3184 -10388,-8139 -13817,-15491 4697,4776 9930,7918 15547,9804 9100,-25719 33680,-44228 62449,-44228zm-1704 62420c9613,-4472 18425,-6260 19620,-3984 1191,2276 -5678,7779 -15292,12244 -9612,4469 -18426,6257 -19620,3983 -1194,-2273 5677,-7776 15292,-12243zm15853 11434c37459,-11382 40917,-36530 3280,-29307 -25505,4897 -53097,13853 -73090,8721 -971,4164 -1486,8499 -1486,12950 0,1380 53,2747 150,4102 10446,-5615 24656,-10002 42846,-11737 -37457,11382 -40915,36530 -3278,29308 25504,-4897 53096,-13856 73090,-8725 970,-4163 1485,-8497 1485,-12948 0,-1379 -53,-2747 -149,-4103 -10447,5617 -24657,10004 -42848,11739zm-67655 -27677c27287,3084 61178,-16482 88294,-25240 -9647,-7434 -21715,-11865 -34788,-11865 -24429,0 -45359,15466 -53506,37105zm107012 40080c-27288,-3084 -61179,16483 -88294,25241 9647,7434 21715,11867 34788,11867 24429,0 45359,-15468 53506,-37108z"/>
  <g style="clip-path:url(#id3)">
   <g id="_2255458710480">
    <path id="1" class="fil14" d="M-63661 90933c114077,24876 145613,-64739 277118,-35953 3300,25435 6600,50870 9900,76305 -92373,11984 -184745,23968 -277118,35953 -3300,-25435 -6600,-50870 -9900,-76305z"/>
   </g>
  </g>
  <path class="fil9" d="M80354 1060c17530,0 33503,6874 45369,18062 5406,-1129 10415,-1548 14885,-911 22910,3265 25732,23891 5270,39517 454,3119 694,6308 694,9550 0,5623 -711,11084 -2040,16303 5671,3183 10389,8140 13818,15492 -4697,-4776 -9930,-7920 -15548,-9806 -9101,25718 -33680,44230 -62448,44230 -17530,0 -33503,-6876 -45369,-18064 -5406,1129 -10415,1550 -14886,913 -22910,-3265 -25732,-23893 -5269,-39519 -454,-3120 -695,-6306 -695,-9549 0,-5622 711,-11085 2040,-16303 -5670,-3184 -10388,-8139 -13817,-15491 4697,4776 9930,7918 15547,9804 9100,-25719 33680,-44228 62449,-44228zm-1704 62420c9613,-4472 18425,-6260 19620,-3984 1191,2276 -5678,7779 -15292,12244 -9612,4469 -18426,6257 -19620,3983 -1194,-2273 5677,-7776 15292,-12243zm15853 11434c37459,-11382 40917,-36530 3280,-29307 -25505,4897 -53097,13853 -73090,8721 -971,4164 -1486,8499 -1486,12950 0,1380 53,2747 150,4102 10446,-5615 24656,-10002 42846,-11737 -37457,11382 -40915,36530 -3278,29308 25504,-4897 53096,-13856 73090,-8725 970,-4163 1485,-8497 1485,-12948 0,-1379 -53,-2747 -149,-4103 -10447,5617 -24657,10004 -42848,11739zm-67655 -27677c27287,3084 61178,-16482 88294,-25240 -9647,-7434 -21715,-11865 -34788,-11865 -24429,0 -45359,15466 -53506,37105zm107012 40080c-27288,-3084 -61179,16483 -88294,25241 9647,7434 21715,11867 34788,11867 24429,0 45359,-15468 53506,-37108z"/>
  <path class="fil15" d="M80354 0c8727,0 17082,1681 24757,4737 7797,3104 14882,7625 20935,13240 2561,-515 5033,-870 7400,-1029 2557,-171 5001,-114 7311,215 5609,799 10073,2619 13342,5148 3343,2585 5439,5904 6240,9635 795,3699 307,7787 -1509,11944 -2111,4834 -6028,9772 -11819,14298 191,1402 340,2816 443,4239 118,1616 178,3234 178,4852 0,2824 -177,5611 -519,8350 -316,2524 -773,5005 -1361,7434 2656,1580 5105,3557 7312,5992 2393,2639 4490,5804 6247,9571l-1715 1188c-2286,-2325 -4704,-4253 -7234,-5829 -2227,-1388 -4539,-2503 -6922,-3374 -4766,12817 -13338,23815 -24334,31602 -10970,7770 -24347,12344 -38752,12344 -8727,0 -17081,-1682 -24756,-4737 -7797,-3105 -14883,-7626 -20936,-13241 -2561,515 -5033,870 -7400,1029 -2557,171 -5001,115 -7312,-214 -5608,-799 -10072,-2619 -13342,-5149 -3343,-2585 -5439,-5904 -6240,-9635 -795,-3700 -307,-7788 1509,-11945 2111,-4834 6028,-9772 11819,-14298 -191,-1402 -339,-2815 -443,-4237 -117,-1616 -178,-3234 -178,-4851 0,-2826 177,-5614 520,-8354 316,-2524 772,-5005 1360,-7433 -2656,-1581 -5105,-3557 -7312,-5992 -2392,-2638 -4489,-5802 -6246,-9569l1714 -1188c2286,2324 4704,4252 7234,5828 2228,1388 4539,2502 6922,3373 4765,-12817 13338,-23814 24333,-31600 10971,-7771 24348,-12344 38754,-12344zm23978 6700c-7420,-2954 -15511,-4580 -23978,-4580 -13963,0 -26920,4426 -37537,11946 -10919,7733 -19374,18741 -23914,31574l-347 981 -987 -331c-2889,-970 -5677,-2262 -8342,-3922 -991,-617 -1967,-1286 -2925,-2009 911,1355 1881,2594 2907,3725 2232,2463 4741,4427 7484,5967l709 399 -200 785c-660,2592 -1165,5245 -1503,7947 -332,2651 -503,5354 -503,8097 0,1595 57,3163 169,4702 115,1584 287,3151 512,4697l89 612 -494 378c-5765,4402 -9625,9189 -11657,13842 -1634,3741 -2080,7388 -1377,10661 696,3241 2531,6134 5462,8401 2988,2311 7116,3981 12349,4727 2159,308 4456,359 6872,197 2440,-164 4996,-544 7648,-1098l540 -113 400 378c5954,5613 12954,10123 20668,13194 7419,2954 15510,4579 23977,4579 13962,0 26918,-4426 37535,-11946 10920,-7733 19374,-18742 23915,-31575l348 -981 986 331c2889,970 5677,2262 8342,3922 992,618 1967,1288 2925,2011 -911,-1355 -1881,-2595 -2906,-3726 -2233,-2464 -4742,-4428 -7485,-5968l-709 -398 200 -786c661,-2593 1166,-5246 1504,-7948 332,-2650 503,-5351 503,-8093 0,-1595 -58,-3164 -170,-4703 -115,-1585 -287,-3153 -512,-4699l-89 -612 495 -378c5765,-4402 9624,-9189 11656,-13842 1634,-3741 2079,-7388 1377,-10660 -697,-3241 -2530,-6134 -5462,-8401 -2987,-2311 -7116,-3980 -12348,-4726 -2159,-307 -4456,-359 -6872,-198 -2441,163 -4996,543 -7648,1097l-540 113 -400 -378c-5954,-5613 -12954,-10122 -20667,-13192zm-26125 55819c4873,-2267 9565,-3858 13201,-4596 4032,-819 6954,-523 7797,1084l13 25 24 48 12 21c695,1496 -483,3553 -3007,5760 -2209,1931 -5523,4117 -9485,6190 -1095,573 -2213,1126 -3341,1649 -4872,2266 -9564,3857 -13201,4595 -4034,819 -6956,524 -7798,-1079l-13 -25 -24 -49 -12 -25c-693,-1491 476,-3540 2986,-5739 2195,-1922 5488,-4099 9429,-6168 1118,-587 2262,-1153 3419,-1691zm13615 -2526c-3470,704 -7991,2243 -12729,4447 -1179,548 -2290,1097 -3327,1642 -3787,1987 -6936,4065 -9015,5886 -1764,1546 -2703,2733 -2457,3263l0 0 0 1c355,669 2438,617 5512,-7 3471,-705 7992,-2243 12729,-4446 1152,-535 2237,-1070 3249,-1600 3810,-1993 6978,-4079 9072,-5909 1777,-1554 2724,-2749 2477,-3283l2 -1 -3 -4c-355,-666 -2437,-613 -5510,11zm2375 13911c14674,-4459 23996,-11003 27550,-16804 1214,-1983 1724,-3842 1509,-5450 -207,-1541 -1107,-2894 -2719,-3940 -3780,-2452 -11216,-3239 -22556,-1063 -5788,1111 -11586,2408 -17379,3704 -19789,4425 -39526,8838 -55110,5256 -368,1728 -657,3484 -861,5265 -240,2094 -363,4231 -363,6407 0,741 11,1414 34,2022l16 382c5184,-2643 11231,-4992 18163,-6891 6973,-1910 14840,-3363 23623,-4201l405 2062c-14673,4459 -23994,11003 -27548,16804 -1215,1984 -1725,3843 -1509,5450 207,1541 1107,2895 2719,3941 3780,2452 11216,3239 22555,1063 5791,-1111 11592,-2409 17388,-3706 19786,-4426 39519,-8839 55101,-5257 368,-1728 657,-3484 861,-5264 240,-2094 364,-4231 364,-6405 0,-742 -12,-1415 -34,-2024l-16 -383c-5185,2644 -11231,4993 -18164,6892 -6973,1911 -14840,3365 -23623,4202l-406 -2062zm29355 -15703c-2980,4865 -9646,10183 -19758,14481 4976,-786 9600,-1783 13877,-2955 7420,-2033 13803,-4594 19178,-7483l1441 -775 116 1632c47,651 85,1344 112,2079 27,759 42,1461 42,2099 0,2237 -129,4455 -380,6645 -255,2221 -636,4405 -1134,6542l-245 1052 -1047 -269c-15251,-3914 -35191,546 -55185,5019 -5879,1315 -11763,2631 -17445,3722 -11924,2288 -19901,1356 -24104,-1370 -2160,-1401 -3372,-3268 -3663,-5431 -282,-2097 326,-4429 1799,-6833 2980,-4865 9645,-10183 19757,-14481 -4976,785 -9600,1783 -13877,2955 -7420,2032 -13803,4593 -19178,7482l-1440 774 -117 -1631c-47,-652 -84,-1344 -111,-2079 -28,-758 -43,-1460 -43,-2097 0,-2238 130,-4457 381,-6647 255,-2222 635,-4406 1134,-6544l245 -1051 1047 269c15253,3915 35196,-545 55192,-5018 5877,-1314 11758,-2630 17438,-3720 11923,-2288 19901,-1356 24104,1370 2159,1401 3372,3267 3663,5431 281,2097 -326,4428 -1799,6832zm-95210 -11882c18885,1591 40985,-7428 61675,-15874 7890,-3220 15577,-6358 22861,-8814 -4406,-3151 -9285,-5682 -14506,-7463 -5655,-1929 -11716,-2976 -18018,-2976 -11818,0 -22800,3686 -31854,9964 -8948,6205 -16017,14944 -20158,25163zm62470 -13911c-21433,8749 -44364,18109 -64080,15881l-1353 -153 479 -1271c4208,-11178 11767,-20739 21441,-27448 9401,-6519 20797,-10345 33055,-10345 6532,0 12821,1088 18697,3092 6090,2077 11733,5140 16737,8996l1590 1225 -1913 618c-7723,2495 -16068,5901 -24653,9405zm41554 55827c-18885,-1591 -40985,7429 -61674,15874 -7890,3221 -15577,6359 -22862,8815 4406,3151 9286,5683 14508,7464 5654,1929 11714,2977 18016,2977 11818,0 22799,-3686 31854,-9965 8948,-6206 16017,-14945 20158,-25165zm-62469 13911c21432,-8749 44363,-18109 64079,-15881l1353 153 -479 1272c-4209,11178 -11767,20740 -21441,27449 -9401,6519 -20797,10346 -33055,10346 -6531,0 -12820,-1088 -18695,-3093 -6091,-2077 -11735,-5141 -16739,-8997l-1590 -1225 1913 -618c7723,-2495 16068,-5901 24654,-9406z"/>
 </g>
</svg>
